<svg xmlns="http://www.w3.org/2000/svg" width="36" height="36" viewBox="0 0 36 36">
  <g id="Group_99" data-name="Group 99" transform="translate(-240 -319)">
    <rect id="Rectangle_16" data-name="Rectangle 16" width="36" height="36" rx="5" transform="translate(240 319)" fill="#1f97e7" opacity="0.1"/>
    <g id="Group_97" data-name="Group 97" transform="translate(-91.803 19.197)">
      <g id="Rectangle_22" data-name="Rectangle 22" transform="translate(342.803 310.803)" fill="#e8f4fd" stroke="#1492e6" stroke-width="1">
        <rect width="18" height="18" rx="2" stroke="none"/>
        <rect x="0.5" y="0.5" width="17" height="17" rx="1.5" fill="none"/>
      </g>
      <g id="Rectangle_23" data-name="Rectangle 23" transform="translate(340.803 308.803)" fill="#e8f4fd" stroke="#1492e6" stroke-width="1">
        <rect width="18" height="18" rx="2" stroke="none"/>
        <rect x="0.5" y="0.5" width="17" height="17" rx="1.5" fill="none"/>
      </g>
      <g id="Rectangle_24" data-name="Rectangle 24" transform="translate(338.803 306.803)" fill="#e8f4fd" stroke="#1492e6" stroke-width="1">
        <rect width="18" height="18" rx="2" stroke="none"/>
        <rect x="0.5" y="0.5" width="17" height="17" rx="1.5" fill="none"/>
      </g>
      <g id="Icon_feather-music" data-name="Icon feather-music" transform="translate(337.603 306.617)">
        <path id="Path_24" data-name="Path 24" d="M13.5,12.988V5.632L20.291,4.5v7.356" transform="translate(-5.605)" fill="none" stroke="#1492e6" stroke-linecap="round" stroke-linejoin="round" stroke-width="1"/>
        <path id="Path_25" data-name="Path 25" d="M7.9,24.2a1.7,1.7,0,1,1-1.7-1.7A1.7,1.7,0,0,1,7.9,24.2Z" transform="translate(0 -11.209)" fill="#1492e6" stroke="#1492e6" stroke-linecap="round" stroke-linejoin="round" stroke-width="1"/>
        <path id="Path_26" data-name="Path 26" d="M25.9,21.2a1.7,1.7,0,1,1-1.7-1.7A1.7,1.7,0,0,1,25.9,21.2Z" transform="translate(-11.209 -9.341)" fill="#1492e6" stroke="#1492e6" stroke-linecap="round" stroke-linejoin="round" stroke-width="1"/>
      </g>
    </g>
  </g>
</svg>
