<svg xmlns="http://www.w3.org/2000/svg" width="250" height="200" viewBox="0 0 250 200">
<defs>
    <style>
      .cls-1 {
        stroke: #b0b0b0;
        stroke-linejoin: round;
        stroke-width: 1px;
      }

      .cls-2 {
        fill: #e6e6e6;
      }

      .cls-3 {
        fill: #fff;
        fill-rule: evenodd;
      }
    </style>
  </defs>
  <rect id="Rectangle_1_copy" data-name="Rectangle 1 copy" class="cls-2" style="fill: #e6e6e6;" width="250" height="200"/>
  <path id="Forma_1_copy_8" data-name="Forma 1 copy 8" class="cls-3" style=" fill: #fff;fill-rule: evenodd;" d="M179.244,62.72l3.536,3.536,55.912-55.912-3.536-3.536ZM11.308,190.656l3.535,3.536L70.756,138.28l-3.536-3.536Z"/>
  <path id="Forma_1_copy_9" data-name="Forma 1 copy 9" class="cls-3" style=" fill: #fff;fill-rule: evenodd;" d="M182.78,134.744l-3.536,3.536,55.912,55.912,3.536-3.536ZM14.844,6.808l-3.535,3.536L67.22,66.256l3.536-3.536Z"/>
  <path id="Forma_1" data-name="Forma 1" class="cls-3" style=" fill: #fff;fill-rule: evenodd;" d="M125,50a50,50,0,1,0,50,50A49.956,49.956,0,0,0,125,50Zm-13,5c-2.638,3.7-7.119,9.91-9,14H91C95.949,63.765,105.027,57.413,112,55ZM88,73h13a74.554,74.554,0,0,0-5,25H79A45.35,45.35,0,0,1,88,73Zm0,54a45.349,45.349,0,0,1-9-25H96a74.052,74.052,0,0,0,5,25H88Zm3,4h12a97.748,97.748,0,0,0,8,13A55.043,55.043,0,0,1,91,131Zm32,15a60.673,60.673,0,0,1-7-1c-3.395-4.192-5.648-9.235-8-14h15v15Zm0-19H106c-3.292-7.935-5.734-16.309-6-25h23v25ZM100,98a70.652,70.652,0,0,1,5-25h18V98H100Zm23-29H107a75.224,75.224,0,0,1,9-14,56.011,56.011,0,0,1,7-1V69Zm39,4a45.138,45.138,0,0,1,9,25H154a74.053,74.053,0,0,0-5-25h13Zm-3-4H147c-1.9-4.09-6.382-10.3-9-14C145.014,57.413,154.031,63.744,159,69ZM127,54a44.775,44.775,0,0,1,6,1c3.4,4.192,7.648,9.235,10,14H127V54Zm0,19h18a70.036,70.036,0,0,1,5,25H127V73Zm23,29a70.653,70.653,0,0,1-5,25H127V102h23Zm-23,44V131h16a75.2,75.2,0,0,1-9,14A55.881,55.881,0,0,1,127,146Zm12-2a95.605,95.605,0,0,0,8-13h12A55.049,55.049,0,0,1,139,144Zm10-17a77.723,77.723,0,0,0,5-25h17a45.348,45.348,0,0,1-9,25H149Z"/>
</svg>
