<svg xmlns="http://www.w3.org/2000/svg" width="250" height="200" viewBox="0 0 250 200">
  <metadata><?xpacket begin="﻿" id="W5M0MpCehiHzreSzNTczkc9d"?>
<x:xmpmeta xmlns:x="adobe:ns:meta/" x:xmptk="Adobe XMP Core 5.6-c138 79.159824, 2016/09/14-01:09:01        ">
   <rdf:RDF xmlns:rdf="http://www.w3.org/1999/02/22-rdf-syntax-ns#">
      <rdf:Description rdf:about=""/>
   </rdf:RDF>
</x:xmpmeta>
                                                                                                    
                                                                                                    
                                                                                                    
                                                                                                    
                                                                                                    
                                                                                                    
                                                                                                    
                                                                                                    
                                                                                                    
                                                                                                    
                                                                                                    
                                                                                                    
                                                                                                    
                                                                                                    
                                                                                                    
                                                                                                    
                                                                                                    
                                                                                                    
                                                                                                    
                                                                                                    
                           
<?xpacket end="w"?></metadata>
<defs>
    <style>
      .cls-1 {
        stroke: #b0b0b0;
        stroke-linejoin: round;
        stroke-width: 1px;
      }

      .cls-2 {
        fill: #e6e6e6;
      }

      .cls-3 {
        fill: #fff;
        fill-rule: evenodd;
      }
    </style>
  </defs>
  <rect id="Rectangle_1_copy" data-name="Rectangle 1 copy" class="cls-2" width="250" height="200"/>
  <path id="Forma_1_copy_5" data-name="Forma 1 copy 5" class="cls-3" d="M153,70H97C84.1,70,84,83,84,83v34s0.025,13,13,13h56s13,0,13-12.972V83.045S165.832,70,153,70Zm8,13v27L142.573,96.463a2.511,2.511,0,0,0-3.572,0L122,110,107.6,99.781a2.294,2.294,0,0,0-3.386,0L89,110V83s0.01-8,8-8h56S161,74.945,161,83Zm0,34s0,8-8,8l-56.055.043C88.984,125.043,89,117,89,117v-1l17-12,14.674,10.776a2.6,2.6,0,0,0,3.571,0L141,101l20,15v1ZM116.851,82.336a4.761,4.761,0,1,1-4.76,4.761A4.76,4.76,0,0,1,116.851,82.336Z"/>
  <path id="Forma_1_copy_8" data-name="Forma 1 copy 8" class="cls-3" d="M179.244,62.72l3.536,3.536,55.912-55.912-3.536-3.536ZM11.308,190.656l3.535,3.536L70.756,138.28l-3.536-3.536Z"/>
  <path id="Forma_1_copy_9" data-name="Forma 1 copy 9" class="cls-3" d="M182.78,134.744l-3.536,3.536,55.912,55.912,3.536-3.536ZM14.844,6.808l-3.535,3.536L67.22,66.256l3.536-3.536Z"/>
</svg>
