<svg xmlns="http://www.w3.org/2000/svg" width="36" height="36" viewBox="0 0 36 36">
  
  <g id="Group_96" data-name="Group 96" transform="translate(-2883 -1503)">
    <g id="Group_95" data-name="Group 95" transform="translate(15.5 -11.5)">
      <g id="Icon_ionic-ios-images" data-name="Icon ionic-ios-images" transform="translate(2869.75 1517.957)">
        <path id="Path_6" data-name="Path 6" stroke="#fff" fill="#1492e6" d="M18.443,14.006a.333.333,0,0,0-.541-.049L11.44,22.549a.329.329,0,0,0,.225.541l11.327.984a.335.335,0,0,0,.316-.5Z" transform="translate(-3.038 -3.546)"/>
        <path id="Path_7" data-name="Path 7" stroke="#fff" fill="#1492e6" d="M25.819,18.57a.333.333,0,0,0-.541-.049l-1.744,1.765a.329.329,0,0,0-.035.38l1.786,3.48a.328.328,0,0,0,.26.162l3.157.274a.335.335,0,0,0,.316-.5Z" transform="translate(-6.507 -4.151)"/>
        <path id="Path_8" data-name="Path 8" stroke="#fff" fill="#1492e6" d="M26.585,15.778A1.663,1.663,0,1,0,24.919,13.8,1.676,1.676,0,0,0,26.585,15.778Z" transform="translate(-5.23 -2.356)"/>
      </g>
      <path id="Path_9" data-name="Path 9" stroke="#fff" fill="#1492e6" d="M25.861,7.678,22.19,7.36l-.34-3.738A1.507,1.507,0,0,0,20.2,2.255L3.628,3.751a1.513,1.513,0,0,0-1.372,1.64l1.5,16.542A1.507,1.507,0,0,0,5.4,23.3l.876-.078-.084.932a1.509,1.509,0,0,0,1.378,1.635l16.587,1.445a1.513,1.513,0,0,0,1.64-1.372L27.245,9.313A1.52,1.52,0,0,0,25.861,7.678ZM5.352,17.241a.384.384,0,0,1-.413-.34l-1-11.158a.376.376,0,0,1,.34-.407l15.577-1.4a.384.384,0,0,1,.413.34l.268,2.946L9.28,6.233a1.513,1.513,0,0,0-1.64,1.372l-.831,9.5ZM25.56,9.676l-.976,11.158a.38.38,0,0,1-.407.346l-1.038-.089L8.593,19.824a.38.38,0,0,1-.346-.407l.212-2.449.764-8.709a.38.38,0,0,1,.407-.346l11.047.965,1.657.145,2.879.251A.364.364,0,0,1,25.56,9.676Z" transform="translate(2870.25 1518.251)"/>
    </g>
    <rect id="Rectangle_16" data-name="Rectangle 16" opacity="0.1" fill="#1f97e7" width="36" height="36" rx="5" transform="translate(2883 1503)"/>
  </g>
</svg>
