<svg xmlns="http://www.w3.org/2000/svg" width="36" height="36" viewBox="0 0 36 36">
  
  <g id="Group_72" data-name="Group 72" transform="translate(-2088 -1608)">
    <path id="Icon_metro-library" data-name="Icon metro-library" fill="#1f97e7" d="M25.16,24.808V23.4H23.749V14.925H25.16V13.514H20.925v1.412h1.412V23.4H18.1V14.925h1.412V13.514H15.278v1.412H16.69V23.4H12.454V14.925h1.412V13.514H9.631v1.412h1.412V23.4H6.807V14.925H8.219V13.514H3.984v1.412H5.4V23.4H3.984v1.412H2.572v1.412h24V24.808H25.16ZM13.866,3.631h1.412L26.572,10.69V12.1h-24V10.69Z" transform="translate(2091.428 1611.369)"/>
    <rect id="Rectangle_18" data-name="Rectangle 18" opacity="0.1" fill="#1f97e7" width="36" height="36" rx="5" transform="translate(2088 1608)"/>
  </g>
</svg>
