<svg xmlns="http://www.w3.org/2000/svg" width="36" height="36" viewBox="0 0 36 36">

  <g id="Group_64" data-name="Group 64" transform="translate(-1959 -1518)">
    <g id="Group_55" data-name="Group 55" transform="translate(1683 1070.558)">
      <path id="Icon_awesome-image" data-name="Icon awesome-image" fill="#1492e6" d="M14.554,16.545H1.506A1.506,1.506,0,0,1,0,15.039V6.006A1.506,1.506,0,0,1,1.506,4.5H14.554A1.506,1.506,0,0,1,16.06,6.006v9.034A1.506,1.506,0,0,1,14.554,16.545ZM3.513,6.257A1.757,1.757,0,1,0,5.27,8.013,1.757,1.757,0,0,0,3.513,6.257ZM2.008,14.538H14.053V11.024L11.307,8.279a.376.376,0,0,0-.532,0L6.524,12.53,4.783,10.789a.376.376,0,0,0-.532,0L2.008,13.032Z" transform="translate(286.376 449.942)"/>
      <path id="Icon_material-audiotrack" data-name="Icon material-audiotrack" stroke="#fff" fill="#1492e6" d="M4.9,0V7.58a3.586,3.586,0,0,0-1.225-.229,3.676,3.676,0,1,0,3.635,4.084h.041V2.45h3.267V0Z" transform="matrix(0.966, -0.259, 0.259, 0.966, 277, 462.485)"/>
      <path id="Icon_awesome-play-circle" data-name="Icon awesome-play-circle" stroke-width="1.5px" stroke="#fff" fill="#1492e6" d="M6.936.562A6.374,6.374,0,1,0,13.31,6.936,6.372,6.372,0,0,0,6.936.562ZM9.91,7.553l-4.523,2.6a.618.618,0,0,1-.917-.54V4.263a.618.618,0,0,1,.917-.54L9.91,6.473A.619.619,0,0,1,9.91,7.553Z" transform="translate(296.69 462.924)"/>
    </g>
    <rect id="Rectangle_15" data-name="Rectangle 15" fill="#1f97e7" opacity= "0.1" width="36" height="36" rx="5" transform="translate(1959 1518)"/>
  </g>
</svg>
