<svg xmlns="http://www.w3.org/2000/svg" width="36" height="36" viewBox="0 0 36 36">
  <g id="Group_98" data-name="Group 98" transform="translate(-240 -319)">
    <rect id="Rectangle_16" data-name="Rectangle 16" width="36" height="36" rx="5" transform="translate(240 319)" fill="#1f97e7" opacity="0.1"/>
    <g id="Group_97" data-name="Group 97" transform="translate(-91.803 19.197)">
      <g id="Rectangle_22" data-name="Rectangle 22" transform="translate(342.803 310.803)" fill="#e8f4fd" stroke="#1492e6" stroke-width="1">
        <rect width="18" height="18" rx="2" stroke="none"/>
        <rect x="0.5" y="0.5" width="17" height="17" rx="1.5" fill="none"/>
      </g>
      <g id="Rectangle_23" data-name="Rectangle 23" transform="translate(340.803 308.803)" fill="#e8f4fd" stroke="#1492e6" stroke-width="1">
        <rect width="18" height="18" rx="2" stroke="none"/>
        <rect x="0.5" y="0.5" width="17" height="17" rx="1.5" fill="none"/>
      </g>
      <g id="Rectangle_24" data-name="Rectangle 24" transform="translate(338.803 306.803)" fill="#e8f4fd" stroke="#1492e6" stroke-width="1">
        <rect width="18" height="18" rx="2" stroke="none"/>
        <rect x="0.5" y="0.5" width="17" height="17" rx="1.5" fill="none"/>
      </g>
      <path id="Icon_ionic-ios-play" data-name="Icon ionic-ios-play" d="M9,6.972v8.074a.208.208,0,0,0,.311.192l6.4-4.037a.229.229,0,0,0,0-.381l-6.4-4.037A.206.206,0,0,0,9,6.972Z" transform="translate(336.451 305.018)" fill="#1492e6"/>
    </g>
  </g>
</svg>
