_<svg xmlns="http://www.w3.org/2000/svg" width="36" height="36" viewBox="0 0 36 36">

  <g id="Group_70" data-name="Group 70" transform="translate(-2002 -1608)">
    <path id="Icon_ionic-ios-globe" data-name="Icon ionic-ios-globe" fill="#1f97e7" d="M13.875,3.375H13.84a10.5,10.5,0,0,0,.005,21h.035a10.5,10.5,0,1,0-.005-21Zm9.1,9.793H19.054a19.88,19.88,0,0,0-.495-3.847,15.378,15.378,0,0,0,2.509-1.06A9.044,9.044,0,0,1,22.972,13.168Zm-9.8,0h-3.12a17.943,17.943,0,0,1,.444-3.488,15.358,15.358,0,0,0,2.675.358Zm0,1.413v3.125a15.423,15.423,0,0,0-2.675.358,17.941,17.941,0,0,1-.444-3.483Zm1.413,0h3.094a17.838,17.838,0,0,1-.444,3.478,15.068,15.068,0,0,0-2.65-.353Zm0-1.413v-3.13a15.424,15.424,0,0,0,2.65-.353,17.89,17.89,0,0,1,.444,3.483ZM20.1,7.217A14.024,14.024,0,0,1,18.186,8a10.423,10.423,0,0,0-1.338-2.751A9.135,9.135,0,0,1,20.1,7.217ZM16.853,8.363a14.207,14.207,0,0,1-2.272.3V4.96A6.117,6.117,0,0,1,16.853,8.363ZM13.168,4.94V8.66a13.962,13.962,0,0,1-2.3-.308A6.113,6.113,0,0,1,13.168,4.94Zm-2.3.323A10.505,10.505,0,0,0,9.539,7.994a14.339,14.339,0,0,1-1.893-.777A9,9,0,0,1,10.866,5.263Zm-4.185,3a15.074,15.074,0,0,0,2.484,1.05,19.078,19.078,0,0,0-.495,3.847H4.783A9,9,0,0,1,6.681,8.267Zm-1.9,6.315H8.665a19.828,19.828,0,0,0,.495,3.847,15.993,15.993,0,0,0-2.484,1.05A9.045,9.045,0,0,1,4.778,14.582Zm2.862,5.952a14.128,14.128,0,0,1,1.9-.777,10.543,10.543,0,0,0,1.328,2.736A9.222,9.222,0,0,1,7.641,20.533Zm3.231-1.141a14.035,14.035,0,0,1,2.3-.308V22.81A6.1,6.1,0,0,1,10.871,19.393Zm3.71,3.4V19.08a14.207,14.207,0,0,1,2.272.3A6.114,6.114,0,0,1,14.582,22.79Zm2.272-.288a10.423,10.423,0,0,0,1.338-2.751,13.793,13.793,0,0,1,1.918.787A9.24,9.24,0,0,1,16.853,22.5Zm4.215-3.019a15.378,15.378,0,0,0-2.509-1.06,19.776,19.776,0,0,0,.495-3.842h3.917A9,9,0,0,1,21.069,19.483Z" transform="translate(2005.625 1612.625)"/>
    <rect id="Rectangle_19" data-name="Rectangle 19" opacity="0.1" fill="#1f97e7" width="36" height="36" rx="5" transform="translate(2002 1608)"/>
  </g>
</svg>
