<svg xmlns="http://www.w3.org/2000/svg" width="100" height="100" viewBox="0 0 100 100">
  <path id="Forma_1_copy_6" data-name="Forma 1 copy 6" class="cls-1"  style = "fill-rule: evenodd;" d="M76,15H24s-13,.1-13,13V72S10.963,85,24,85H76s13-.044,13-12.972V28.045S88.893,15,76,15Zm8,13V65L64.573,48.463a2.51,2.51,0,0,0-3.572,0L45,64,32.6,54.781a2.294,2.294,0,0,0-3.386,0L16,65V28c0-7.994,8-8,8-8H76S84,20.014,84,28Zm0,44s-0.023,8-8,8H24s-8-.048-8-8V71L31,59l12.674,9.776a2.6,2.6,0,0,0,3.571,0L63,53,84,71v1ZM41.851,32.336A4.761,4.761,0,1,1,37.091,37.1,4.76,4.76,0,0,1,41.851,32.336Z"/>
</svg>
