<svg xmlns="http://www.w3.org/2000/svg" width="100" height="100" viewBox="0 0 100 100">
  <metadata><?xpacket begin="﻿" id="W5M0MpCehiHzreSzNTczkc9d"?>
<x:xmpmeta xmlns:x="adobe:ns:meta/" x:xmptk="Adobe XMP Core 5.6-c138 79.159824, 2016/09/14-01:09:01        ">
   <rdf:RDF xmlns:rdf="http://www.w3.org/1999/02/22-rdf-syntax-ns#">
      <rdf:Description rdf:about=""/>
   </rdf:RDF>
</x:xmpmeta>
                                                                                                    
                                                                                                    
                                                                                                    
                                                                                                    
                                                                                                    
                                                                                                    
                                                                                                    
                                                                                                    
                                                                                                    
                                                                                                    
                                                                                                    
                                                                                                    
                                                                                                    
                                                                                                    
                                                                                                    
                                                                                                    
                                                                                                    
                                                                                                    
                                                                                                    
                                                                                                    
                           
<?xpacket end="w"?></metadata>
<defs>
    <style>
      .cls-1 {
        fill-rule: evenodd;
      }
    </style>
  </defs>
  <path id="Forma_1_copy_5" data-name="Forma 1 copy 5" class="cls-1" d="M68,23H32C19.1,23,20,35,20,35V65S19.025,77,32,77H68s12,1,12-11.972V35.045S80.832,23,68,23Zm8,12V58L63.573,48.463a2.51,2.51,0,0,0-3.572,0L47,57,36.6,49.781a2.294,2.294,0,0,0-3.386,0L24,58V35s0.009-8,8-8H68S76,26.945,76,35Zm0,30s0,8-8,8l-36.055.043C23.984,73.043,24,65,24,65V64L35,54l10.674,6.776a2.6,2.6,0,0,0,3.571,0L62,52,76,64v1ZM41.851,34.336A4.761,4.761,0,1,1,37.091,39.1,4.76,4.76,0,0,1,41.851,34.336Z"/>
  <path id="Forma_1_copy_6" data-name="Forma 1 copy 6" class="cls-1" d="M85,48v5h15V48H85ZM0,48v5H15V48H0Z"/>
</svg>
